<svg id="svg" version="1.1" xmlns="http://www.w3.org/2000/svg" xmlns:xlink="http://www.w3.org/1999/xlink" width="400" height="248.39650145772595" viewBox="0, 0, 400,248.39650145772595"><g id="svgg"><path id="path0" d="M121.739 35.789 C 120.988 35.899,118.698 36.164,116.651 36.377 C 111.240 36.942,102.600 38.984,97.143 40.988 C 95.981 41.415,94.472 41.967,93.789 42.216 C 93.106 42.466,92.099 42.894,91.553 43.169 C 91.006 43.444,88.882 44.490,86.832 45.493 C 84.783 46.496,83.050 47.381,82.981 47.460 C 82.913 47.538,81.348 48.541,79.503 49.687 C 77.658 50.833,75.334 52.393,74.337 53.152 C 73.341 53.912,71.927 54.984,71.196 55.535 C 67.525 58.298,59.769 65.941,56.889 69.634 C 56.593 70.014,55.998 70.811,55.567 71.405 C 55.135 72.000,54.144 73.326,53.364 74.353 C 52.584 75.380,51.645 76.763,51.277 77.427 C 50.909 78.090,50.234 79.223,49.776 79.943 C 49.318 80.663,48.944 81.311,48.944 81.383 C 48.944 81.455,48.547 82.135,48.062 82.894 C 47.175 84.281,45.839 86.830,45.153 88.447 C 44.950 88.925,44.484 90.043,44.117 90.932 C 42.913 93.844,42.526 94.764,41.905 96.186 C 41.568 96.958,41.218 97.964,41.126 98.422 C 41.034 98.880,40.700 100.093,40.382 101.118 C 39.733 103.216,38.698 107.632,38.286 110.062 C 37.219 116.366,36.964 118.359,36.758 121.988 C 36.453 127.353,36.659 133.768,37.260 137.640 C 38.555 145.980,38.795 147.317,39.256 148.780 C 39.528 149.646,39.751 150.596,39.750 150.892 C 39.749 151.558,41.114 156.024,41.759 157.460 C 42.021 158.044,42.236 158.645,42.236 158.795 C 42.236 159.069,42.375 159.404,44.689 164.720 C 45.905 167.514,48.189 171.929,48.801 172.671 C 48.970 172.876,49.422 173.602,49.806 174.286 C 53.828 181.449,60.033 189.002,66.951 195.155 C 68.026 196.112,69.138 197.134,69.422 197.427 C 69.706 197.720,71.224 198.879,72.795 200.002 C 74.366 201.125,76.075 202.379,76.592 202.789 C 77.624 203.606,80.950 205.645,83.478 207.011 C 85.751 208.238,87.040 208.966,87.329 209.186 C 87.562 209.362,90.388 210.621,92.919 211.675 C 93.534 211.931,94.876 212.433,95.901 212.791 C 96.925 213.150,98.099 213.591,98.509 213.773 C 100.744 214.762,107.826 216.635,111.301 217.155 C 122.140 218.779,127.134 219.080,134.161 218.530 C 139.576 218.107,144.372 217.435,147.826 216.615 C 148.988 216.339,150.497 216.012,151.180 215.888 C 153.630 215.446,160.337 213.076,166.460 210.489 C 168.693 209.546,173.502 206.932,176.694 204.928 C 177.746 204.267,178.724 203.727,178.868 203.727 C 179.012 203.727,179.130 203.639,179.130 203.532 C 179.130 203.425,179.486 203.127,179.920 202.871 C 180.354 202.614,180.885 202.258,181.100 202.079 C 181.315 201.900,182.609 200.929,183.975 199.920 C 185.342 198.912,187.271 197.330,188.263 196.406 C 189.255 195.481,190.429 194.428,190.872 194.064 C 191.315 193.701,192.924 192.148,194.449 190.615 C 198.222 186.818,198.030 186.812,202.086 190.870 C 207.386 196.171,210.291 198.649,215.901 202.649 C 218.075 204.200,221.496 206.335,222.286 206.636 C 222.532 206.729,223.633 207.325,224.733 207.959 C 228.109 209.906,229.777 210.641,237.391 213.536 C 240.933 214.883,249.372 217.143,250.860 217.143 C 251.241 217.143,252.419 217.309,253.479 217.511 C 260.722 218.898,273.667 219.088,280.124 217.903 C 280.807 217.778,282.317 217.543,283.478 217.383 C 284.640 217.222,286.708 216.831,288.075 216.513 C 289.441 216.196,290.950 215.861,291.429 215.768 C 292.603 215.541,298.683 213.490,300.341 212.761 C 301.076 212.438,301.789 212.174,301.925 212.174 C 302.171 212.174,303.927 211.455,306.584 210.266 C 308.260 209.516,308.447 209.417,311.518 207.640 C 312.877 206.854,314.068 206.211,314.165 206.211 C 314.337 206.211,316.705 204.715,319.006 203.151 C 319.621 202.734,321.377 201.463,322.907 200.326 C 324.438 199.190,325.784 198.261,325.899 198.261 C 326.013 198.261,326.544 197.786,327.077 197.205 C 327.610 196.624,328.901 195.422,329.945 194.534 C 330.989 193.646,332.448 192.254,333.189 191.441 C 333.929 190.629,335.341 189.112,336.328 188.071 C 339.445 184.780,344.203 178.279,346.755 173.822 C 347.276 172.913,348.009 171.639,348.384 170.991 C 348.759 170.344,349.285 169.363,349.552 168.811 C 349.819 168.260,350.118 167.729,350.215 167.632 C 350.414 167.433,351.382 165.192,352.707 161.863 C 353.196 160.634,353.696 159.521,353.817 159.391 C 353.938 159.261,354.037 158.917,354.037 158.626 C 354.037 158.335,354.316 157.547,354.657 156.874 C 354.998 156.202,355.278 155.509,355.278 155.333 C 355.279 155.157,355.550 154.151,355.881 153.097 C 358.513 144.715,360.038 131.171,359.370 122.112 C 358.647 112.303,356.604 101.733,354.618 97.529 C 354.299 96.853,354.037 96.164,354.037 95.997 C 354.037 95.830,353.366 94.119,352.547 92.194 C 351.727 90.269,351.055 88.555,351.055 88.385 C 351.054 88.214,350.814 87.683,350.521 87.205 C 350.229 86.727,349.574 85.553,349.067 84.596 C 347.152 80.983,344.075 76.053,342.258 73.685 C 341.221 72.334,340.373 71.151,340.373 71.056 C 340.373 70.853,340.138 70.575,336.817 66.853 C 333.173 62.769,328.988 58.668,326.335 56.581 C 326.062 56.367,325.224 55.701,324.472 55.103 C 321.184 52.485,316.227 49.187,312.490 47.133 C 311.701 46.700,311.056 46.259,311.056 46.154 C 311.056 46.049,310.939 45.963,310.797 45.963 C 310.529 45.963,308.832 45.202,304.923 43.329 C 303.669 42.728,302.502 42.236,302.331 42.236 C 302.160 42.236,301.566 42.020,301.010 41.755 C 298.793 40.701,296.241 39.906,290.683 38.540 C 284.380 36.990,283.230 36.759,280.497 36.496 C 279.062 36.357,276.658 36.082,275.155 35.884 C 271.637 35.421,263.979 35.422,260.332 35.887 C 258.783 36.084,256.364 36.364,254.956 36.508 C 253.548 36.653,251.704 36.931,250.857 37.127 C 250.010 37.323,248.031 37.777,246.460 38.136 C 242.104 39.132,234.807 41.516,231.677 42.966 C 227.541 44.883,225.162 46.014,224.845 46.217 C 224.640 46.348,223.969 46.741,223.354 47.089 C 222.739 47.438,221.453 48.218,220.497 48.824 C 219.540 49.429,218.330 50.158,217.807 50.443 C 216.427 51.195,213.729 53.072,212.429 54.184 C 211.810 54.713,210.578 55.717,209.689 56.416 C 207.181 58.389,204.616 60.741,201.646 63.789 C 197.946 67.586,198.310 67.639,193.244 62.582 C 190.484 59.827,187.046 56.753,185.065 55.269 C 184.707 55.002,183.532 54.112,182.453 53.292 C 181.374 52.472,180.045 51.513,179.500 51.161 C 178.955 50.809,177.839 50.086,177.019 49.554 C 176.199 49.022,175.137 48.373,174.658 48.113 C 174.180 47.853,173.733 47.569,173.665 47.483 C 173.401 47.151,164.495 42.855,162.609 42.151 C 158.387 40.573,157.076 40.124,154.783 39.466 C 150.237 38.162,143.979 36.806,141.197 36.521 C 139.719 36.370,137.242 36.085,135.692 35.887 C 132.670 35.502,124.110 35.441,121.739 35.789 M133.043 76.881 C 136.749 77.248,141.358 78.164,143.602 78.980 C 144.354 79.253,145.472 79.659,146.087 79.882 C 146.702 80.105,147.596 80.495,148.075 80.749 C 148.553 81.002,150.146 81.771,151.615 82.457 C 162.079 87.344,170.569 97.034,176.019 110.311 C 176.384 111.199,176.917 112.177,177.204 112.484 L 177.726 113.043 198.133 113.043 L 218.541 113.043 219.178 112.360 C 219.529 111.984,219.950 111.230,220.113 110.683 C 220.276 110.137,220.564 109.354,220.752 108.944 C 220.940 108.534,221.607 107.048,222.233 105.641 C 225.155 99.084,229.791 93.236,236.326 87.866 C 239.776 85.030,242.100 83.499,244.969 82.173 C 248.698 80.448,249.874 79.949,251.823 79.261 C 263.160 75.259,278.020 75.959,288.161 80.971 C 289.207 81.488,291.012 82.380,292.174 82.954 C 300.031 86.837,309.108 96.245,313.057 104.596 C 318.587 116.293,319.785 126.857,316.974 139.130 C 316.708 140.292,316.315 141.689,316.099 142.236 C 315.884 142.783,315.456 143.901,315.149 144.720 C 313.865 148.146,313.543 148.879,312.329 151.123 C 309.567 156.232,304.934 161.889,300.248 165.875 C 296.390 169.157,290.230 172.799,286.447 174.034 C 285.702 174.277,284.967 174.575,284.812 174.697 C 284.658 174.819,283.596 175.194,282.452 175.531 C 268.539 179.633,253.427 177.664,241.491 170.194 C 240.329 169.467,239.323 168.795,239.255 168.700 C 239.186 168.606,238.516 168.134,237.764 167.652 C 236.563 166.881,235.425 165.895,231.772 162.460 C 231.278 161.995,230.022 160.553,228.982 159.255 C 227.942 157.957,226.918 156.697,226.708 156.455 C 224.994 154.483,221.791 148.320,220.158 143.851 C 219.060 140.846,220.938 141.081,198.000 141.082 C 175.726 141.084,177.177 140.954,176.407 143.014 C 176.134 143.742,175.808 144.535,175.681 144.777 C 175.554 145.019,175.026 146.266,174.509 147.548 C 170.231 158.154,159.693 168.562,148.199 173.534 C 137.232 178.278,123.998 178.991,113.458 175.406 C 107.213 173.282,104.791 172.096,99.503 168.571 C 96.300 166.436,90.805 161.281,88.668 158.409 C 88.069 157.602,87.272 156.540,86.899 156.048 C 86.525 155.557,86.145 154.988,86.054 154.783 C 85.962 154.578,85.748 154.242,85.577 154.037 C 84.560 152.815,81.242 145.977,81.242 145.102 C 81.242 144.840,81.139 144.562,81.013 144.484 C 80.619 144.240,79.303 139.890,78.605 136.522 C 76.737 127.510,78.389 113.753,82.187 106.688 C 82.328 106.426,82.841 105.373,83.328 104.348 C 83.814 103.323,84.354 102.264,84.528 101.994 C 84.702 101.724,85.236 100.894,85.714 100.150 C 86.193 99.407,86.837 98.454,87.147 98.033 C 87.456 97.612,87.913 96.961,88.161 96.587 C 90.311 93.344,95.782 88.221,100.497 85.033 C 102.362 83.772,109.687 80.000,110.271 80.000 C 110.367 80.000,111.292 79.674,112.325 79.277 C 118.064 77.067,125.841 76.167,133.043 76.881 " stroke="none" fill="#f8f8f8" fill-rule="evenodd"></path><path id="path1" d="M0.000 124.224 L 0.000 248.447 200.000 248.447 L 400.000 248.447 400.000 124.224 L 400.000 0.000 200.000 0.000 L 0.000 0.000 0.000 124.224 M275.404 34.059 C 281.084 34.503,286.790 35.461,292.050 36.852 C 298.103 38.454,298.743 38.670,303.354 40.668 C 303.832 40.875,304.447 41.137,304.720 41.250 C 308.470 42.802,312.078 44.595,313.416 45.572 C 313.826 45.872,314.888 46.490,315.776 46.945 C 316.665 47.401,317.737 48.038,318.160 48.359 C 318.583 48.681,319.010 48.944,319.108 48.944 C 319.207 48.944,319.700 49.252,320.203 49.627 C 320.706 50.003,321.229 50.392,321.366 50.491 C 321.503 50.591,322.509 51.349,323.602 52.175 C 324.696 53.001,326.205 54.139,326.957 54.702 C 328.979 56.219,335.472 62.376,337.143 64.362 C 337.758 65.093,338.731 66.201,339.306 66.824 C 339.881 67.447,340.744 68.514,341.224 69.196 C 341.705 69.877,342.273 70.658,342.487 70.932 C 344.696 73.756,348.362 79.241,349.046 80.745 C 349.325 81.360,349.949 82.534,350.432 83.354 C 352.025 86.057,354.430 91.276,354.814 92.861 C 354.970 93.508,355.302 94.429,355.550 94.907 C 355.799 95.385,356.109 96.168,356.239 96.646 C 356.368 97.124,356.779 98.298,357.151 99.255 C 357.523 100.211,358.009 101.832,358.231 102.857 C 358.452 103.882,358.707 104.834,358.798 104.972 C 358.956 105.213,359.219 106.507,359.756 109.689 C 361.503 120.042,361.724 132.011,360.333 140.994 C 359.478 146.515,359.254 147.750,358.908 148.820 C 358.710 149.435,358.467 150.385,358.368 150.932 C 358.270 151.478,357.801 152.988,357.326 154.286 C 356.851 155.584,356.318 157.149,356.143 157.764 C 355.967 158.379,355.591 159.385,355.308 160.000 C 355.025 160.615,354.790 161.286,354.787 161.491 C 354.783 161.696,354.625 162.160,354.436 162.523 C 354.246 162.885,353.952 163.612,353.782 164.137 C 353.056 166.377,347.584 176.442,345.699 179.006 C 338.653 188.589,334.576 193.140,328.199 198.540 C 327.174 199.408,326.280 200.183,326.211 200.263 C 325.818 200.724,323.071 202.810,322.289 203.241 C 321.782 203.521,320.584 204.308,319.627 204.989 C 316.774 207.019,316.115 207.419,312.704 209.188 C 310.909 210.119,308.671 211.294,307.731 211.800 C 305.813 212.832,302.928 213.966,298.509 215.425 C 296.870 215.966,295.304 216.519,295.031 216.653 C 293.961 217.179,286.898 218.868,283.602 219.386 C 270.726 221.410,254.228 220.701,244.224 217.693 C 238.013 215.826,232.287 213.805,229.565 212.520 C 227.648 211.615,227.337 211.457,225.217 210.306 C 224.534 209.935,222.969 209.110,221.739 208.471 C 220.509 207.833,218.720 206.781,217.764 206.133 C 209.927 200.827,206.846 198.346,201.601 193.117 C 197.831 189.358,198.424 189.296,193.665 193.946 C 191.478 196.082,188.795 198.546,187.702 199.421 C 186.609 200.295,185.504 201.186,185.247 201.400 C 184.853 201.729,179.912 205.120,177.302 206.853 C 175.405 208.112,165.404 213.271,164.383 213.517 C 163.992 213.611,163.209 213.903,162.643 214.165 C 162.078 214.428,161.000 214.803,160.248 214.999 C 159.497 215.195,158.379 215.568,157.764 215.828 C 157.149 216.087,156.031 216.484,155.280 216.709 C 154.528 216.934,153.186 217.337,152.298 217.605 C 151.410 217.873,149.957 218.221,149.068 218.378 C 148.180 218.535,146.559 218.873,145.466 219.128 C 144.373 219.383,142.584 219.666,141.491 219.756 C 140.398 219.846,138.050 220.077,136.273 220.268 C 132.552 220.669,124.634 220.724,121.366 220.371 C 120.137 220.238,117.789 220.011,116.149 219.866 C 111.508 219.457,104.520 217.868,99.876 216.165 C 98.714 215.739,97.149 215.223,96.398 215.019 C 92.441 213.940,81.832 208.625,77.391 205.495 C 76.161 204.628,74.839 203.736,74.452 203.512 C 72.841 202.580,68.553 199.205,66.205 197.021 C 59.808 191.070,56.153 187.005,52.693 181.993 C 52.224 181.313,51.624 180.530,51.360 180.254 C 51.097 179.978,50.550 179.193,50.144 178.509 C 49.739 177.826,49.083 176.764,48.688 176.149 C 48.292 175.534,47.792 174.696,47.576 174.286 C 47.359 173.876,46.824 172.899,46.386 172.114 C 44.531 168.793,43.166 166.019,42.456 164.129 C 42.039 163.020,41.540 161.776,41.347 161.366 C 40.059 158.627,37.457 150.211,37.007 147.329 C 36.847 146.304,36.563 144.851,36.375 144.099 C 35.958 142.425,35.109 134.203,34.902 129.814 C 34.599 123.427,35.923 110.645,37.525 104.472 C 37.667 103.925,38.004 102.620,38.274 101.571 C 38.543 100.522,39.107 98.845,39.526 97.844 C 39.946 96.844,40.379 95.663,40.490 95.221 C 40.601 94.779,40.927 93.965,41.215 93.412 C 41.503 92.859,41.740 92.159,41.740 91.856 C 41.741 91.552,42.017 90.857,42.354 90.311 C 42.690 89.764,42.969 89.171,42.974 88.992 C 42.984 88.538,45.224 83.958,45.730 83.354 C 46.176 82.823,46.634 82.005,47.435 80.308 C 48.080 78.943,52.933 71.668,53.870 70.663 C 54.117 70.398,54.712 69.567,55.192 68.817 C 55.672 68.067,56.447 67.113,56.914 66.697 C 57.382 66.281,58.200 65.442,58.733 64.833 C 61.441 61.738,67.363 55.961,68.873 54.941 C 69.517 54.506,70.914 53.454,71.978 52.603 C 73.042 51.752,74.104 50.944,74.337 50.807 C 74.571 50.671,75.689 49.934,76.822 49.171 C 77.955 48.407,79.553 47.419,80.373 46.974 C 81.193 46.530,82.031 46.024,82.236 45.851 C 82.828 45.349,85.938 43.668,87.702 42.896 C 98.073 38.357,103.676 36.517,110.167 35.521 C 111.112 35.375,111.958 35.212,112.045 35.158 C 114.635 33.558,135.752 33.471,143.851 35.027 C 145.149 35.277,146.658 35.550,147.205 35.634 C 148.775 35.876,153.530 37.020,155.031 37.517 C 155.783 37.765,156.772 38.046,157.231 38.140 C 159.381 38.583,171.884 44.124,173.990 45.567 C 174.510 45.924,175.404 46.453,175.977 46.743 C 177.281 47.402,182.720 51.032,184.764 52.607 C 185.608 53.257,186.819 54.180,187.457 54.658 C 188.801 55.667,193.058 59.641,195.767 62.415 C 198.059 64.764,198.123 64.759,200.725 62.080 C 203.508 59.215,208.754 54.410,209.099 54.410 C 209.264 54.410,209.437 54.324,209.482 54.218 C 209.528 54.112,210.516 53.330,211.677 52.480 C 212.839 51.629,214.012 50.765,214.286 50.559 C 215.830 49.397,218.720 47.529,220.124 46.788 C 221.012 46.319,222.242 45.626,222.857 45.249 C 224.252 44.394,226.605 43.168,228.075 42.531 C 230.457 41.498,232.742 40.542,234.410 39.879 C 235.366 39.499,236.484 39.048,236.894 38.876 C 237.950 38.433,242.395 37.072,243.727 36.785 C 257.733 33.757,264.301 33.191,275.404 34.059 M124.720 78.766 C 119.895 79.037,111.219 81.103,109.068 82.493 C 108.592 82.801,105.619 84.224,105.452 84.224 C 105.382 84.224,104.575 84.717,103.657 85.321 C 102.739 85.924,101.680 86.557,101.304 86.727 C 100.929 86.897,100.621 87.112,100.621 87.205 C 100.621 87.298,100.323 87.509,99.959 87.675 C 99.255 87.996,99.148 88.082,96.646 90.338 C 94.428 92.338,92.510 94.277,91.146 95.901 C 87.398 100.360,86.453 101.936,82.681 110.009 C 81.831 111.826,80.702 116.338,80.267 119.649 C 79.513 125.391,79.503 129.779,80.234 134.410 C 80.374 135.298,80.609 136.797,80.756 137.742 C 80.902 138.686,81.168 139.748,81.346 140.102 C 81.524 140.456,81.740 141.201,81.825 141.758 C 82.020 143.038,83.913 147.368,84.965 148.944 C 85.239 149.354,85.463 149.845,85.464 150.036 C 85.471 151.428,90.346 157.917,94.410 161.943 C 98.861 166.351,107.141 171.592,111.189 172.563 C 111.594 172.660,112.037 172.820,112.174 172.919 C 112.311 173.018,113.093 173.301,113.913 173.547 C 114.733 173.793,115.523 174.084,115.668 174.194 C 116.484 174.811,122.316 175.496,127.578 175.592 C 133.115 175.695,134.056 175.611,139.379 174.549 C 141.247 174.176,145.969 172.511,148.174 171.448 C 149.007 171.046,150.304 170.433,151.056 170.085 C 152.559 169.390,152.643 169.339,155.080 167.640 C 156.010 166.991,156.874 166.460,156.999 166.460 C 157.124 166.460,157.263 166.376,157.308 166.273 C 157.354 166.171,157.950 165.642,158.634 165.098 C 160.003 164.008,163.183 161.033,164.197 159.893 C 166.715 157.062,168.696 154.645,168.696 154.403 C 168.696 154.312,168.937 153.900,169.231 153.486 C 170.497 151.709,174.658 142.915,174.658 142.018 C 174.658 141.294,176.152 139.705,177.100 139.421 C 178.523 138.995,217.426 139.009,219.024 139.436 C 220.329 139.785,221.273 140.937,221.829 142.857 C 222.184 144.083,223.026 146.023,224.040 147.950 C 224.399 148.634,224.827 149.472,224.992 149.814 C 225.890 151.677,226.505 152.786,227.196 153.789 C 228.423 155.568,230.143 157.847,230.683 158.409 C 230.957 158.693,231.851 159.681,232.671 160.603 C 234.693 162.878,242.262 168.944,243.079 168.944 C 243.173 168.944,243.553 169.166,243.923 169.438 C 244.880 170.141,249.885 172.303,252.671 173.218 C 253.969 173.644,255.143 174.074,255.280 174.174 C 256.262 174.890,263.231 175.731,267.980 175.707 C 272.318 175.685,279.812 174.785,280.615 174.189 C 280.755 174.085,281.373 173.858,281.988 173.685 C 282.602 173.511,283.441 173.222,283.851 173.042 C 284.261 172.862,285.267 172.472,286.087 172.176 C 286.907 171.880,287.969 171.425,288.447 171.165 C 288.925 170.905,289.820 170.469,290.435 170.197 C 291.683 169.646,292.637 169.067,294.858 167.516 C 295.690 166.935,296.438 166.460,296.522 166.460 C 296.605 166.460,297.030 166.118,297.467 165.700 C 297.904 165.283,298.540 164.789,298.882 164.604 C 300.030 163.980,304.974 158.720,307.064 155.897 C 307.670 155.079,308.241 154.354,308.334 154.286 C 308.426 154.217,308.688 153.798,308.916 153.354 C 309.143 152.910,309.438 152.547,309.572 152.547 C 309.705 152.547,309.814 152.431,309.814 152.291 C 309.814 152.150,310.596 150.420,311.553 148.447 C 312.509 146.474,313.292 144.747,313.292 144.609 C 313.292 144.472,313.561 143.769,313.891 143.049 C 316.411 137.537,317.322 119.593,315.276 115.771 C 315.124 115.486,314.848 114.561,314.663 113.714 C 314.300 112.049,313.782 110.708,312.124 107.144 C 311.537 105.880,311.056 104.795,311.056 104.733 C 311.056 104.394,308.460 100.182,307.635 99.183 C 307.104 98.539,306.326 97.509,305.906 96.894 C 303.962 94.046,297.775 88.431,294.410 86.460 C 293.932 86.180,293.093 85.670,292.547 85.327 C 292.000 84.984,291.161 84.529,290.683 84.316 C 290.205 84.102,289.422 83.752,288.944 83.537 C 288.466 83.322,287.891 82.991,287.666 82.801 C 286.045 81.429,276.542 79.039,271.553 78.748 C 260.799 78.122,251.339 80.392,242.614 85.693 C 241.695 86.251,240.843 86.708,240.720 86.708 C 240.597 86.708,240.497 86.817,240.497 86.950 C 240.497 87.083,240.134 87.379,239.689 87.608 C 238.805 88.063,238.774 88.088,235.901 90.680 C 232.170 94.046,228.526 98.219,226.774 101.131 C 225.320 103.547,222.416 109.576,221.934 111.180 C 221.270 113.389,220.489 114.448,219.198 114.888 C 217.701 115.398,178.765 115.488,177.087 114.985 C 176.230 114.728,174.907 113.495,174.907 112.953 C 174.907 111.964,170.492 102.557,169.286 100.976 C 168.961 100.550,168.696 100.122,168.696 100.025 C 168.696 99.625,162.907 92.679,162.270 92.314 C 161.922 92.115,161.051 91.354,159.265 89.689 C 158.388 88.871,155.040 86.478,154.286 86.129 C 154.081 86.035,153.578 85.738,153.168 85.469 C 150.313 83.600,144.961 81.279,141.491 80.404 C 134.978 78.764,131.246 78.399,124.720 78.766 " stroke="none" fill="#1c1c1c" fill-rule="evenodd"></path><path id="path2" d="M123.478 34.768 C 122.180 34.844,124.360 34.908,128.323 34.909 C 132.917 34.910,134.583 34.853,132.919 34.753 C 129.874 34.569,126.784 34.574,123.478 34.768 M262.981 34.769 C 261.615 34.845,263.739 34.908,267.702 34.910 C 272.419 34.912,273.963 34.859,272.174 34.755 C 268.998 34.572,266.454 34.575,262.981 34.769 M116.273 35.273 C 115.795 35.379,114.535 35.607,113.473 35.781 C 112.411 35.955,111.596 36.151,111.662 36.217 C 111.728 36.283,112.965 36.143,114.410 35.906 C 115.855 35.669,117.844 35.391,118.829 35.287 L 120.621 35.099 118.882 35.090 C 117.925 35.085,116.752 35.167,116.273 35.273 M138.882 35.427 C 140.453 35.615,142.276 35.882,142.931 36.021 C 144.140 36.277,145.262 36.356,145.072 36.173 C 144.829 35.937,138.584 35.033,137.363 35.058 C 136.362 35.078,136.745 35.171,138.882 35.427 M254.286 35.550 C 252.783 35.813,251.441 36.075,251.304 36.132 C 250.778 36.349,252.353 36.248,253.416 35.996 C 254.031 35.851,255.764 35.587,257.267 35.410 C 259.497 35.148,259.726 35.087,258.509 35.080 C 257.689 35.075,255.789 35.287,254.286 35.550 M277.143 35.298 C 278.236 35.408,280.335 35.688,281.808 35.920 C 283.281 36.153,284.541 36.287,284.608 36.220 C 284.676 36.152,283.862 35.960,282.800 35.793 C 281.738 35.626,280.333 35.386,279.677 35.260 C 279.021 35.134,277.736 35.046,276.820 35.064 L 275.155 35.097 277.143 35.298 M105.963 37.266 C 102.695 38.101,100.679 38.724,95.830 40.399 C 95.175 40.625,94.688 40.858,94.746 40.916 C 94.804 40.974,96.701 40.403,98.960 39.647 C 102.340 38.515,105.456 37.664,110.683 36.447 C 111.007 36.371,110.920 36.328,110.435 36.322 C 110.025 36.318,108.012 36.742,105.963 37.266 M145.963 36.447 C 153.924 38.300,157.727 39.454,163.929 41.895 C 170.323 44.413,181.195 50.924,186.491 55.408 C 189.800 58.210,190.679 59.007,193.946 62.174 C 198.403 66.494,198.016 66.456,201.487 62.919 C 209.557 54.697,216.963 49.373,227.826 43.985 C 229.671 43.069,231.460 42.198,231.801 42.047 C 232.143 41.896,232.285 41.765,232.117 41.756 C 231.949 41.747,230.976 42.130,229.955 42.609 C 228.933 43.087,228.050 43.478,227.992 43.478 C 227.890 43.478,223.095 46.089,221.863 46.815 C 221.522 47.017,220.684 47.482,220.001 47.850 C 218.137 48.853,212.857 52.503,210.186 54.635 C 206.780 57.355,206.456 57.645,202.484 61.533 C 197.841 66.079,198.281 66.012,194.891 62.684 C 192.574 60.410,190.521 58.533,186.793 55.285 C 181.640 50.794,170.703 44.306,163.602 41.528 C 162.099 40.940,160.199 40.195,159.379 39.871 C 156.459 38.720,147.219 36.245,146.055 36.302 C 145.549 36.327,145.536 36.347,145.963 36.447 M245.436 37.252 C 241.409 38.287,233.693 40.866,232.919 41.435 L 232.422 41.800 232.919 41.610 C 235.326 40.687,242.817 38.206,244.155 37.888 C 245.081 37.669,246.677 37.279,247.702 37.021 C 248.727 36.763,249.845 36.505,250.186 36.447 C 250.634 36.370,250.565 36.338,249.938 36.330 C 249.460 36.324,247.434 36.739,245.436 37.252 M286.358 36.634 C 287.190 36.800,288.071 37.012,288.315 37.106 C 288.559 37.199,289.555 37.441,290.529 37.643 C 297.770 39.147,309.532 44.167,317.019 48.950 C 328.955 56.577,339.183 66.815,346.174 78.137 C 347.353 80.044,351.056 86.661,351.056 86.858 C 351.056 86.911,351.572 88.100,352.203 89.502 C 352.835 90.903,353.670 92.832,354.060 93.789 C 354.450 94.745,354.772 95.394,354.776 95.231 C 354.783 94.902,353.616 91.996,352.100 88.571 C 350.572 85.119,348.455 81.211,346.360 77.978 C 344.623 75.297,342.535 72.214,342.345 72.050 C 342.266 71.981,341.608 71.143,340.882 70.186 C 332.919 59.697,321.758 50.612,308.820 44.088 C 305.381 42.353,304.575 42.005,300.000 40.278 C 295.501 38.580,286.982 36.240,285.528 36.303 C 285.141 36.320,285.501 36.463,286.358 36.634 M93.307 41.374 C 92.693 41.838,93.096 41.833,93.913 41.366 C 94.273 41.161,94.378 41.011,94.161 41.010 C 93.957 41.010,93.572 41.174,93.307 41.374 M89.689 42.892 C 86.409 44.457,83.176 46.241,83.334 46.398 C 83.407 46.471,83.609 46.414,83.783 46.272 C 84.082 46.027,88.460 43.814,91.429 42.405 C 92.180 42.049,92.627 41.759,92.422 41.762 C 92.217 41.764,90.988 42.273,89.689 42.892 M80.248 47.960 C 71.310 53.583,65.043 58.908,57.866 66.979 C 56.461 68.559,53.002 73.010,52.553 73.815 C 52.413 74.067,51.560 75.366,50.659 76.701 C 48.887 79.327,45.115 85.943,45.290 86.118 C 45.349 86.177,46.208 84.741,47.199 82.926 C 48.189 81.112,49.267 79.271,49.593 78.836 C 49.919 78.401,50.186 77.968,50.186 77.874 C 50.186 77.780,50.717 76.963,51.366 76.058 C 52.016 75.154,52.854 73.934,53.230 73.347 C 55.851 69.256,64.617 59.817,69.087 56.273 C 73.344 52.898,76.477 50.687,81.863 47.257 C 82.547 46.821,82.994 46.468,82.857 46.470 C 82.720 46.473,81.547 47.143,80.248 47.960 M124.389 77.531 C 121.574 77.781,117.868 78.424,115.652 79.049 C 113.051 79.781,110.219 80.780,109.938 81.064 C 109.771 81.233,109.852 81.253,110.186 81.126 C 134.658 71.801,161.046 82.147,172.905 105.717 C 173.867 107.628,174.655 109.049,174.656 108.874 C 174.657 108.699,174.155 107.544,173.540 106.307 C 165.120 89.389,150.063 79.008,131.793 77.524 C 128.320 77.242,127.636 77.243,124.389 77.531 M264.099 77.535 C 261.684 77.739,258.105 78.307,256.294 78.774 C 254.024 79.361,250.404 80.549,250.524 80.669 C 250.594 80.739,251.525 80.512,252.593 80.165 C 263.457 76.628,276.371 76.972,285.714 81.048 C 297.268 86.088,304.074 91.839,310.499 101.990 C 311.234 103.152,313.389 107.742,314.310 110.108 C 314.859 111.518,315.239 112.335,315.155 111.925 C 315.070 111.516,314.493 109.917,313.872 108.374 C 305.908 88.589,285.201 75.759,264.099 77.535 M247.205 81.964 C 240.554 85.010,233.890 90.167,229.357 95.776 C 228.584 96.733,227.892 97.571,227.818 97.640 C 227.515 97.923,225.839 100.328,225.839 100.480 C 225.839 100.571,225.456 101.242,224.990 101.972 C 224.011 103.502,221.609 108.442,221.626 108.890 C 221.633 109.057,222.241 107.938,222.978 106.404 C 227.775 96.422,236.804 87.020,245.305 83.157 C 247.991 81.936,250.296 80.782,250.062 80.776 C 249.925 80.773,248.640 81.307,247.205 81.964 M108.571 81.556 C 98.390 86.155,90.903 92.790,85.361 102.123 C 83.993 104.427,81.608 109.517,81.804 109.713 C 81.865 109.774,82.216 109.123,82.583 108.266 C 85.733 100.921,90.158 94.860,96.273 89.515 C 98.114 87.906,103.818 83.993,105.133 83.436 C 106.651 82.794,109.686 81.269,109.441 81.273 C 109.304 81.274,108.913 81.402,108.571 81.556 M44.390 87.741 C 43.461 89.745,42.236 92.611,42.236 92.780 C 42.236 92.862,41.845 93.931,41.366 95.155 C 40.888 96.379,40.501 97.579,40.505 97.821 C 40.509 98.063,40.718 97.702,40.969 97.019 C 41.220 96.335,41.710 94.994,42.059 94.037 C 42.765 92.100,44.221 88.660,44.846 87.450 C 45.071 87.017,45.198 86.606,45.130 86.538 C 45.061 86.469,44.728 87.011,44.390 87.741 M354.935 96.025 C 355.598 98.099,356.026 99.155,355.913 98.434 C 355.842 97.982,355.557 97.144,355.280 96.570 C 355.003 95.997,354.848 95.752,354.935 96.025 M40.036 99.060 C 38.775 102.187,36.233 114.076,36.303 116.522 C 36.317 117.005,36.475 116.454,36.659 115.280 C 36.841 114.118,37.106 112.441,37.247 111.553 C 37.843 107.795,39.416 101.364,40.179 99.563 C 40.397 99.049,40.516 98.570,40.445 98.499 C 40.374 98.428,40.190 98.680,40.036 99.060 M356.047 99.503 C 356.039 99.640,356.315 100.478,356.660 101.366 C 357.004 102.255,357.234 102.646,357.170 102.236 C 357.048 101.454,356.070 99.074,356.047 99.503 M357.376 103.851 C 357.431 104.329,357.768 105.997,358.126 107.556 C 358.957 111.181,359.747 116.204,359.985 119.379 L 360.171 121.863 360.209 119.975 C 360.264 117.309,358.731 107.892,357.644 104.224 C 357.353 103.239,357.297 103.162,357.376 103.851 M174.658 109.482 C 174.658 110.189,175.673 112.510,176.307 113.251 L 177.086 114.161 197.817 114.228 L 218.548 114.294 219.387 113.729 C 220.148 113.215,221.869 109.737,221.530 109.397 C 221.476 109.344,221.111 110.105,220.717 111.087 C 219.467 114.204,221.790 113.903,198.429 113.980 C 174.869 114.057,176.630 114.295,175.399 110.870 C 174.893 109.465,174.658 109.024,174.658 109.482 M81.384 110.701 C 81.293 111.065,81.266 111.411,81.325 111.469 C 81.383 111.528,81.506 111.278,81.597 110.914 C 81.689 110.550,81.715 110.204,81.657 110.145 C 81.598 110.087,81.476 110.337,81.384 110.701 M80.812 112.375 C 80.654 112.722,80.346 113.871,80.128 114.929 C 79.909 115.987,79.685 116.926,79.629 117.016 C 79.140 117.807,78.659 122.900,78.666 127.205 C 78.674 132.034,78.891 134.040,79.901 138.585 C 80.554 141.522,80.544 140.482,79.886 137.000 C 78.285 128.525,78.830 116.838,81.017 112.751 C 81.159 112.487,81.235 112.152,81.187 112.008 C 81.139 111.863,80.970 112.029,80.812 112.375 M315.297 112.835 C 315.287 112.925,315.544 114.043,315.868 115.319 C 317.396 121.347,317.682 129.218,316.613 135.776 C 316.524 136.323,316.523 136.705,316.611 136.625 C 317.428 135.882,317.780 124.954,317.136 120.361 C 316.654 116.927,315.405 111.818,315.297 112.835 M35.939 120.559 C 35.741 123.103,35.770 131.325,35.987 134.161 C 36.076 135.323,36.149 132.276,36.149 127.391 C 36.149 122.506,36.138 118.509,36.124 118.509 C 36.110 118.509,36.027 119.432,35.939 120.559 M360.351 127.081 C 360.351 129.540,360.389 130.513,360.434 129.242 C 360.479 127.971,360.479 125.959,360.433 124.770 C 360.388 123.581,360.351 124.621,360.351 127.081 M360.049 134.363 C 359.982 136.513,358.882 143.636,358.103 146.957 C 357.368 150.091,357.152 151.233,357.326 151.056 C 357.577 150.801,358.824 145.362,359.290 142.484 C 360.180 137.000,360.272 136.177,360.184 134.482 L 360.097 132.795 360.049 134.363 M36.308 137.640 C 36.261 139.209,37.351 145.438,38.395 149.565 C 39.349 153.335,39.561 154.062,39.676 153.947 C 39.735 153.888,39.397 152.347,38.924 150.522 C 38.106 147.365,37.036 141.877,36.556 138.385 C 36.416 137.362,36.325 137.089,36.308 137.640 M315.934 138.696 C 315.270 141.512,315.238 141.838,315.758 140.435 C 316.232 139.159,316.686 136.894,316.468 136.894 C 316.407 136.894,316.167 137.705,315.934 138.696 M177.400 140.197 C 176.323 140.572,175.638 141.577,174.905 143.855 C 174.199 146.052,171.466 151.536,169.831 154.037 C 167.687 157.317,163.840 161.848,161.714 163.596 C 161.386 163.866,160.335 164.746,159.379 165.551 C 155.553 168.773,149.169 172.300,144.009 174.042 C 142.408 174.582,141.216 175.064,141.360 175.112 C 141.856 175.277,147.459 173.110,150.435 171.602 C 162.082 165.700,171.344 155.291,175.288 143.673 C 175.733 142.361,176.239 141.383,176.702 140.940 L 177.424 140.248 195.979 140.190 C 220.648 140.113,219.798 140.025,220.597 142.738 C 222.567 149.430,229.115 159.566,234.155 163.726 C 234.568 164.068,235.130 164.552,235.404 164.802 C 239.825 168.846,251.893 175.255,254.869 175.139 C 255.095 175.130,254.050 174.703,252.547 174.189 C 249.298 173.079,246.356 171.759,243.505 170.133 C 242.358 169.479,241.368 168.944,241.304 168.944 C 241.112 168.944,237.270 165.977,235.155 164.196 C 229.819 159.701,224.503 152.102,221.878 145.217 C 220.418 141.387,220.101 140.802,219.255 140.375 C 218.254 139.871,178.816 139.703,177.400 140.197 M80.515 140.994 C 80.514 141.514,81.218 142.942,81.233 142.451 C 81.238 142.296,81.079 141.793,80.879 141.333 C 80.629 140.756,80.516 140.651,80.515 140.994 M314.334 144.058 C 313.330 146.692,313.115 147.430,313.550 146.744 C 313.954 146.108,315.315 142.338,315.227 142.099 C 315.188 141.992,314.786 142.874,314.334 144.058 M81.264 143.106 C 81.271 143.311,81.373 143.702,81.491 143.975 L 81.704 144.472 81.718 143.975 C 81.725 143.702,81.623 143.311,81.491 143.106 C 81.277 142.774,81.251 142.774,81.264 143.106 M81.743 144.806 C 81.741 144.990,81.899 145.437,82.095 145.800 C 82.291 146.163,82.862 147.341,83.363 148.419 C 92.024 167.030,112.800 178.849,133.043 176.681 C 133.870 176.592,131.877 176.510,128.571 176.495 C 122.891 176.471,122.432 176.433,118.882 175.688 C 110.869 174.007,103.780 170.770,97.888 166.101 C 96.863 165.289,95.522 164.172,94.907 163.620 C 92.802 161.731,87.205 155.214,87.205 154.652 C 87.205 154.569,86.898 154.099,86.522 153.607 C 86.146 153.115,84.918 150.858,83.793 148.592 C 82.667 146.326,81.745 144.623,81.743 144.806 M312.880 147.728 C 308.932 158.332,296.352 169.636,283.602 174.036 C 281.826 174.649,280.603 175.151,280.884 175.153 C 284.899 175.172,297.328 168.004,302.775 162.527 C 307.076 158.204,313.982 148.185,313.200 147.403 C 313.121 147.323,312.976 147.470,312.880 147.728 M356.569 153.057 C 356.261 154.043,356.048 154.889,356.096 154.937 C 356.244 155.085,357.321 151.838,357.222 151.542 C 357.171 151.389,356.877 152.070,356.569 153.057 M39.769 154.534 C 39.769 154.739,39.929 155.186,40.124 155.528 C 40.329 155.887,40.479 155.992,40.479 155.776 C 40.479 155.571,40.320 155.124,40.124 154.783 C 39.919 154.424,39.769 154.319,39.769 154.534 M355.055 157.718 C 349.984 172.296,339.865 187.215,328.557 196.786 C 328.002 197.256,327.449 197.807,327.327 198.012 C 326.530 199.355,335.088 191.083,338.019 187.677 C 341.208 183.973,346.653 176.393,347.820 174.033 C 348.022 173.626,348.428 172.896,348.722 172.412 C 349.017 171.928,349.783 170.475,350.424 169.182 C 351.066 167.890,351.797 166.441,352.047 165.963 C 353.106 163.942,356.208 155.629,355.986 155.407 C 355.935 155.355,355.516 156.395,355.055 157.718 M40.532 156.522 C 40.532 156.727,40.628 157.118,40.745 157.391 C 40.880 157.705,40.959 157.750,40.959 157.516 C 40.959 157.311,40.863 156.919,40.745 156.646 C 40.611 156.333,40.532 156.287,40.532 156.522 M41.010 158.117 C 40.995 158.334,41.999 161.042,42.491 162.112 C 42.616 162.385,42.954 163.224,43.241 163.975 C 45.534 169.976,51.501 179.557,57.617 187.056 C 60.589 190.701,68.503 198.112,72.795 201.271 C 74.761 202.718,75.086 202.945,77.267 204.392 C 78.019 204.890,79.099 205.615,79.668 206.003 C 80.237 206.391,80.787 206.708,80.891 206.708 C 80.994 206.708,81.255 206.863,81.471 207.053 C 82.792 208.214,93.878 213.399,97.222 214.419 C 99.191 215.019,98.266 214.479,95.953 213.677 C 94.626 213.217,93.428 212.756,93.291 212.652 C 93.154 212.549,92.484 212.243,91.801 211.973 C 87.516 210.279,79.967 206.074,75.528 202.909 C 68.665 198.017,64.278 194.110,58.861 188.065 C 55.588 184.414,49.687 176.208,48.416 173.540 C 48.286 173.267,47.676 172.149,47.062 171.056 C 45.476 168.234,43.895 164.909,42.726 161.939 C 41.551 158.953,41.032 157.797,41.010 158.117 M137.143 175.797 C 135.214 176.233,134.890 176.353,135.901 176.260 C 137.455 176.116,141.321 175.207,140.373 175.208 C 140.031 175.208,138.578 175.473,137.143 175.797 M257.019 175.650 C 260.873 176.742,267.679 177.164,272.847 176.631 C 275.261 176.382,279.977 175.510,280.220 175.267 C 280.418 175.068,279.851 175.146,277.357 175.660 C 271.955 176.774,265.104 176.866,259.627 175.898 C 255.412 175.153,255.191 175.132,257.019 175.650 M194.485 191.598 C 191.094 194.953,187.200 198.458,185.342 199.828 C 184.590 200.382,183.919 200.913,183.851 201.009 C 183.678 201.251,176.716 205.906,175.652 206.491 C 175.174 206.754,174.391 207.204,173.913 207.491 C 170.624 209.462,162.682 213.097,158.882 214.370 C 158.451 214.514,158.324 214.627,158.580 214.639 C 159.669 214.687,167.205 211.401,172.298 208.657 C 175.459 206.954,175.358 207.014,178.133 205.205 C 183.518 201.694,184.750 200.781,188.934 197.203 C 189.611 196.623,191.815 194.556,193.832 192.609 C 198.407 188.192,197.966 188.241,201.442 191.752 C 203.945 194.280,207.447 197.457,209.573 199.130 C 210.094 199.540,210.865 200.162,211.285 200.511 C 218.024 206.108,230.481 212.626,239.752 215.406 C 241.186 215.836,243.061 216.403,243.918 216.665 C 244.775 216.928,245.670 217.135,245.906 217.126 C 246.338 217.109,245.288 216.764,240.497 215.348 C 226.872 211.324,213.986 203.532,202.452 192.345 C 197.811 187.844,198.238 187.884,194.485 191.598 M326.087 198.908 C 306.149 215.729,277.497 222.840,250.231 217.733 C 248.412 217.392,246.795 217.155,246.638 217.208 C 246.350 217.304,248.808 217.829,252.695 218.502 C 275.832 222.506,301.220 216.872,320.373 203.482 C 322.680 201.869,325.217 199.956,326.087 199.175 C 327.218 198.159,327.218 197.954,326.087 198.908 M98.655 214.763 C 99.622 215.730,110.893 218.324,117.764 219.161 C 125.752 220.133,137.244 219.796,144.348 218.381 C 148.658 217.522,151.643 216.868,151.857 216.736 C 151.974 216.663,152.931 216.398,153.985 216.146 C 155.851 215.699,158.439 214.711,157.835 214.676 C 157.670 214.666,156.993 214.872,156.331 215.133 C 148.228 218.327,131.271 220.235,120.497 219.165 C 113.061 218.427,103.512 216.502,100.070 215.049 C 99.209 214.685,98.417 214.525,98.655 214.763 " stroke="none" fill="#8c8c8c" fill-rule="evenodd"></path><path id="path3" d="M263.478 33.825 C 257.478 34.067,253.630 34.644,243.727 36.785 C 242.395 37.072,237.950 38.433,236.894 38.876 C 236.484 39.048,235.366 39.499,234.410 39.879 C 232.742 40.542,230.457 41.498,228.075 42.531 C 226.605 43.168,224.252 44.394,222.857 45.249 C 222.242 45.626,221.012 46.319,220.124 46.788 C 218.720 47.529,215.830 49.397,214.286 50.559 C 214.012 50.765,212.839 51.629,211.677 52.480 C 210.516 53.330,209.528 54.112,209.482 54.218 C 209.437 54.324,209.264 54.410,209.099 54.410 C 208.754 54.410,203.508 59.215,200.725 62.080 C 198.123 64.759,198.059 64.764,195.767 62.415 C 193.058 59.641,188.801 55.667,187.457 54.658 C 186.819 54.180,185.608 53.257,184.764 52.607 C 182.720 51.032,177.281 47.402,175.977 46.743 C 175.404 46.453,174.510 45.924,173.990 45.567 C 171.884 44.124,159.381 38.583,157.231 38.140 C 156.772 38.046,155.783 37.765,155.031 37.517 C 153.530 37.020,148.775 35.876,147.205 35.634 C 146.658 35.550,145.149 35.277,143.851 35.027 C 135.752 33.471,114.635 33.558,112.045 35.158 C 111.958 35.212,111.112 35.375,110.167 35.521 C 103.676 36.517,98.073 38.357,87.702 42.896 C 85.938 43.668,82.828 45.349,82.236 45.851 C 82.031 46.024,81.193 46.530,80.373 46.974 C 79.553 47.419,77.955 48.407,76.822 49.171 C 75.689 49.934,74.571 50.671,74.337 50.807 C 74.104 50.944,73.042 51.752,71.978 52.603 C 70.914 53.454,69.517 54.506,68.873 54.941 C 67.363 55.961,61.441 61.738,58.733 64.833 C 58.200 65.442,57.382 66.281,56.914 66.697 C 56.447 67.113,55.672 68.067,55.192 68.817 C 54.712 69.567,54.117 70.398,53.870 70.663 C 52.933 71.668,48.080 78.943,47.435 80.308 C 46.634 82.005,46.176 82.823,45.730 83.354 C 45.224 83.958,42.984 88.538,42.974 88.992 C 42.969 89.171,42.690 89.764,42.354 90.311 C 42.017 90.857,41.741 91.552,41.740 91.856 C 41.740 92.159,41.503 92.859,41.215 93.412 C 40.927 93.965,40.601 94.779,40.490 95.221 C 40.379 95.663,39.946 96.844,39.526 97.844 C 39.107 98.845,38.543 100.522,38.274 101.571 C 38.004 102.620,37.667 103.925,37.525 104.472 C 35.923 110.645,34.599 123.427,34.902 129.814 C 35.109 134.203,35.958 142.425,36.375 144.099 C 36.563 144.851,36.847 146.304,37.007 147.329 C 37.457 150.211,40.059 158.627,41.347 161.366 C 41.540 161.776,42.039 163.020,42.456 164.129 C 43.166 166.019,44.531 168.793,46.386 172.114 C 46.824 172.899,47.359 173.876,47.576 174.286 C 47.792 174.696,48.292 175.534,48.688 176.149 C 49.083 176.764,49.739 177.826,50.144 178.509 C 50.550 179.193,51.097 179.978,51.360 180.254 C 51.624 180.530,52.224 181.313,52.693 181.993 C 56.153 187.005,59.808 191.070,66.205 197.021 C 68.553 199.205,72.841 202.580,74.452 203.512 C 74.839 203.736,76.161 204.628,77.391 205.495 C 81.832 208.625,92.441 213.940,96.398 215.019 C 97.149 215.223,98.714 215.739,99.876 216.165 C 104.520 217.868,111.508 219.457,116.149 219.866 C 117.789 220.011,120.137 220.238,121.366 220.371 C 124.634 220.724,132.552 220.669,136.273 220.268 C 138.050 220.077,140.398 219.846,141.491 219.756 C 142.584 219.666,144.373 219.383,145.466 219.128 C 146.559 218.873,148.180 218.535,149.068 218.378 C 149.957 218.221,151.410 217.873,152.298 217.605 C 153.186 217.337,154.528 216.934,155.280 216.709 C 156.031 216.484,157.149 216.087,157.764 215.828 C 158.379 215.568,159.497 215.195,160.248 214.999 C 161.000 214.803,162.078 214.428,162.643 214.165 C 163.209 213.903,163.992 213.611,164.383 213.517 C 165.404 213.271,175.405 208.112,177.302 206.853 C 179.912 205.120,184.853 201.729,185.247 201.400 C 185.504 201.186,186.609 200.295,187.702 199.421 C 188.795 198.546,191.478 196.082,193.665 193.946 C 198.424 189.296,197.831 189.358,201.601 193.117 C 206.846 198.346,209.927 200.827,217.764 206.133 C 218.720 206.781,220.509 207.833,221.739 208.471 C 222.969 209.110,224.534 209.935,225.217 210.306 C 227.337 211.457,227.648 211.615,229.565 212.520 C 232.287 213.805,238.013 215.826,244.224 217.693 C 254.228 220.701,270.726 221.410,283.602 219.386 C 286.898 218.868,293.961 217.179,295.031 216.653 C 295.304 216.519,296.870 215.966,298.509 215.425 C 302.928 213.966,305.813 212.832,307.731 211.800 C 308.671 211.294,310.909 210.119,312.704 209.188 C 316.115 207.419,316.774 207.019,319.627 204.989 C 320.584 204.308,321.782 203.521,322.289 203.241 C 323.071 202.810,325.818 200.724,326.211 200.263 C 326.280 200.183,327.174 199.408,328.199 198.540 C 334.576 193.140,338.653 188.589,345.699 179.006 C 347.584 176.442,353.056 166.377,353.782 164.137 C 353.952 163.612,354.246 162.885,354.436 162.523 C 354.625 162.160,354.783 161.696,354.787 161.491 C 354.790 161.286,355.025 160.615,355.308 160.000 C 355.591 159.385,355.967 158.379,356.143 157.764 C 356.318 157.149,356.851 155.584,357.326 154.286 C 357.801 152.988,358.270 151.478,358.368 150.932 C 358.467 150.385,358.710 149.435,358.908 148.820 C 359.254 147.750,359.478 146.515,360.333 140.994 C 361.487 133.540,361.501 121.071,360.364 113.540 C 359.620 108.614,359.015 105.303,358.798 104.972 C 358.707 104.834,358.452 103.882,358.231 102.857 C 358.009 101.832,357.523 100.211,357.151 99.255 C 356.779 98.298,356.368 97.124,356.239 96.646 C 356.109 96.168,355.799 95.385,355.550 94.907 C 355.302 94.429,354.970 93.508,354.814 92.861 C 354.430 91.276,352.025 86.057,350.432 83.354 C 349.949 82.534,349.325 81.360,349.046 80.745 C 348.362 79.241,344.696 73.756,342.487 70.932 C 342.273 70.658,341.705 69.877,341.224 69.196 C 340.744 68.514,339.881 67.447,339.306 66.824 C 338.731 66.201,337.758 65.093,337.143 64.362 C 335.472 62.376,328.979 56.219,326.957 54.702 C 326.205 54.139,324.696 53.001,323.602 52.175 C 322.509 51.349,321.503 50.591,321.366 50.491 C 321.229 50.392,320.706 50.003,320.203 49.627 C 319.700 49.252,319.207 48.944,319.108 48.944 C 319.010 48.944,318.583 48.681,318.160 48.359 C 317.737 48.038,316.665 47.401,315.776 46.945 C 314.888 46.490,313.826 45.872,313.416 45.572 C 312.078 44.595,308.470 42.802,304.720 41.250 C 304.447 41.137,303.832 40.875,303.354 40.668 C 298.743 38.670,298.103 38.454,292.050 36.852 C 282.996 34.457,273.296 33.429,263.478 33.825 M135.031 34.909 C 138.037 35.109,141.391 35.442,142.484 35.648 C 143.578 35.855,145.199 36.135,146.087 36.269 C 149.035 36.715,156.467 38.730,159.379 39.874 C 160.199 40.196,162.099 40.940,163.602 41.528 C 170.703 44.306,181.640 50.794,186.793 55.285 C 190.521 58.533,192.574 60.410,194.891 62.684 C 198.281 66.012,197.841 66.079,202.484 61.533 C 206.456 57.645,206.780 57.355,210.186 54.635 C 212.857 52.503,218.137 48.853,220.001 47.850 C 220.684 47.482,221.522 47.017,221.863 46.815 C 223.095 46.089,227.890 43.478,227.992 43.478 C 228.050 43.478,228.933 43.087,229.955 42.609 C 230.976 42.130,231.953 41.739,232.124 41.739 C 232.296 41.739,232.657 41.588,232.926 41.404 C 234.410 40.387,246.555 36.746,250.062 36.266 C 250.882 36.154,252.894 35.836,254.534 35.560 C 260.706 34.520,273.734 34.373,279.627 35.278 C 286.254 36.295,290.867 37.294,295.280 38.670 C 297.801 39.456,299.226 39.966,303.602 41.650 C 316.486 46.605,331.989 58.473,340.882 70.186 C 341.608 71.143,342.266 71.981,342.345 72.050 C 342.786 72.432,347.454 79.588,348.504 81.491 C 350.791 85.634,352.813 89.926,354.239 93.665 C 354.526 94.416,355.045 95.777,355.393 96.688 C 355.740 97.600,356.025 98.513,356.025 98.717 C 356.025 98.922,356.234 99.576,356.489 100.171 C 356.923 101.184,357.706 104.158,358.602 108.199 C 360.246 115.610,361.037 131.917,360.042 137.888 C 359.894 138.776,359.554 140.845,359.288 142.484 C 358.158 149.434,354.510 161.263,352.047 165.963 C 351.797 166.441,351.066 167.890,350.424 169.182 C 349.783 170.475,349.017 171.928,348.722 172.412 C 348.428 172.896,348.022 173.626,347.820 174.033 C 344.703 180.332,335.115 191.619,327.329 198.155 C 324.709 200.354,323.422 201.340,320.373 203.480 C 305.457 213.950,286.983 219.677,268.075 219.693 C 247.351 219.711,225.526 212.339,211.285 200.511 C 210.865 200.162,210.094 199.540,209.573 199.130 C 207.447 197.457,203.945 194.280,201.442 191.752 C 197.966 188.241,198.407 188.192,193.832 192.609 C 187.407 198.812,185.102 200.661,178.133 205.205 C 175.358 207.014,175.459 206.954,172.298 208.657 C 167.468 211.259,159.745 214.658,158.663 214.658 C 158.464 214.658,157.762 214.890,157.101 215.173 C 156.441 215.457,155.039 215.895,153.985 216.147 C 152.931 216.398,151.974 216.663,151.857 216.736 C 151.643 216.868,148.658 217.522,144.348 218.381 C 129.737 221.292,110.484 219.488,95.404 213.795 C 91.781 212.427,82.445 207.909,81.471 207.053 C 81.255 206.863,80.994 206.708,80.891 206.708 C 80.787 206.708,80.237 206.391,79.668 206.003 C 79.099 205.615,78.019 204.890,77.267 204.392 C 75.086 202.945,74.761 202.718,72.795 201.271 C 68.503 198.112,60.589 190.701,57.617 187.056 C 51.501 179.557,45.534 169.976,43.241 163.975 C 42.954 163.224,42.616 162.385,42.491 162.112 C 40.813 158.465,38.281 149.909,37.270 144.472 C 36.612 140.935,36.492 140.024,36.147 135.901 C 35.069 123.020,36.818 106.707,40.131 98.758 C 40.302 98.348,40.614 97.453,40.824 96.770 C 42.702 90.677,46.569 82.790,50.664 76.701 C 51.563 75.366,52.413 74.067,52.553 73.815 C 53.002 73.010,56.461 68.559,57.866 66.979 C 64.835 59.142,71.355 53.554,79.503 48.435 C 83.003 46.236,91.684 41.739,92.429 41.739 C 92.588 41.739,93.015 41.578,93.378 41.381 C 95.738 40.100,106.638 36.856,110.559 36.269 C 111.311 36.157,112.932 35.875,114.161 35.644 C 116.337 35.234,123.946 34.633,127.702 34.574 C 128.727 34.558,132.025 34.709,135.031 34.909 M123.106 78.019 C 112.588 79.298,103.555 83.170,96.273 89.519 C 77.071 106.261,73.310 132.638,87.022 154.401 C 89.877 158.934,96.162 165.261,100.746 168.219 C 103.125 169.754,103.896 170.184,106.832 171.614 C 123.972 179.958,145.177 177.512,159.379 165.551 C 160.335 164.746,161.386 163.866,161.714 163.596 C 163.840 161.848,167.687 157.317,169.831 154.037 C 171.466 151.536,174.199 146.052,174.905 143.855 C 176.298 139.523,174.350 139.848,198.488 139.931 C 222.612 140.014,219.639 139.342,221.878 145.217 C 224.503 152.102,229.819 159.701,235.155 164.196 C 237.270 165.977,241.112 168.944,241.304 168.944 C 241.368 168.944,242.358 169.481,243.505 170.138 C 276.154 188.830,317.006 165.214,317.125 127.578 C 317.162 116.046,314.585 107.722,308.166 98.636 C 302.374 90.440,296.255 85.646,285.714 81.048 C 278.246 77.790,267.455 76.844,258.301 78.643 C 253.683 79.551,248.567 81.388,244.351 83.653 C 237.061 87.569,229.306 95.026,225.284 101.988 C 223.776 104.596,222.247 107.833,221.130 110.780 C 220.397 112.714,220.069 113.269,219.387 113.728 L 218.548 114.294 197.817 114.228 L 177.086 114.161 176.307 113.255 C 175.877 112.755,175.312 111.640,175.047 110.770 C 168.807 90.297,145.092 75.344,123.106 78.019 M136.646 79.287 C 143.700 80.755,148.992 82.735,153.168 85.469 C 153.578 85.738,154.081 86.035,154.286 86.129 C 155.040 86.478,158.388 88.871,159.265 89.689 C 161.051 91.354,161.922 92.115,162.270 92.314 C 162.907 92.679,168.696 99.625,168.696 100.025 C 168.696 100.122,168.961 100.550,169.286 100.976 C 170.492 102.557,174.907 111.964,174.907 112.953 C 174.907 113.495,176.230 114.728,177.087 114.985 C 178.765 115.488,217.701 115.398,219.198 114.888 C 220.489 114.448,221.270 113.389,221.934 111.180 C 222.416 109.576,225.320 103.547,226.774 101.131 C 228.526 98.219,232.170 94.046,235.901 90.680 C 238.774 88.088,238.805 88.063,239.689 87.608 C 240.134 87.379,240.497 87.083,240.497 86.950 C 240.497 86.817,240.597 86.708,240.720 86.708 C 240.843 86.708,241.695 86.251,242.614 85.693 C 255.481 77.876,271.028 76.477,285.554 81.827 C 286.491 82.172,287.441 82.610,287.666 82.801 C 287.891 82.991,288.466 83.322,288.944 83.537 C 289.422 83.752,290.205 84.102,290.683 84.316 C 291.161 84.529,292.000 84.984,292.547 85.327 C 293.093 85.670,293.932 86.180,294.410 86.460 C 297.775 88.431,303.962 94.046,305.906 96.894 C 306.326 97.509,307.104 98.539,307.635 99.183 C 308.460 100.182,311.056 104.394,311.056 104.733 C 311.056 104.795,311.537 105.880,312.124 107.144 C 313.782 110.708,314.300 112.049,314.663 113.714 C 314.848 114.561,315.124 115.486,315.276 115.771 C 317.322 119.593,316.411 137.537,313.891 143.049 C 313.561 143.769,313.292 144.472,313.292 144.609 C 313.292 144.747,312.509 146.474,311.553 148.447 C 310.596 150.420,309.814 152.150,309.814 152.291 C 309.814 152.431,309.705 152.547,309.572 152.547 C 309.438 152.547,309.143 152.910,308.916 153.354 C 308.688 153.798,308.426 154.217,308.334 154.286 C 308.241 154.354,307.670 155.079,307.064 155.897 C 304.974 158.720,300.030 163.980,298.882 164.604 C 298.540 164.789,297.904 165.283,297.467 165.700 C 297.030 166.118,296.605 166.460,296.522 166.460 C 296.438 166.460,295.690 166.935,294.858 167.516 C 292.637 169.067,291.683 169.646,290.435 170.197 C 289.820 170.469,288.925 170.905,288.447 171.165 C 287.969 171.425,286.907 171.880,286.087 172.176 C 285.267 172.472,284.261 172.862,283.851 173.042 C 283.441 173.222,282.602 173.511,281.988 173.685 C 281.373 173.858,280.755 174.085,280.615 174.189 C 279.812 174.785,272.318 175.685,267.980 175.707 C 263.231 175.731,256.262 174.890,255.280 174.174 C 255.143 174.074,253.969 173.644,252.671 173.218 C 249.885 172.303,244.880 170.141,243.923 169.438 C 243.553 169.166,243.173 168.944,243.079 168.944 C 242.262 168.944,234.693 162.878,232.671 160.603 C 231.851 159.681,230.957 158.693,230.683 158.409 C 230.143 157.847,228.423 155.568,227.196 153.789 C 226.505 152.786,225.890 151.677,224.992 149.814 C 224.827 149.472,224.399 148.634,224.040 147.950 C 223.026 146.023,222.184 144.083,221.829 142.857 C 221.273 140.937,220.329 139.785,219.024 139.436 C 217.426 139.009,178.523 138.995,177.100 139.421 C 176.152 139.705,174.658 141.294,174.658 142.018 C 174.658 142.915,170.497 151.709,169.231 153.486 C 168.937 153.900,168.696 154.312,168.696 154.403 C 168.696 154.645,166.715 157.062,164.197 159.893 C 163.183 161.033,160.003 164.008,158.634 165.098 C 157.950 165.642,157.354 166.171,157.308 166.273 C 157.263 166.376,157.124 166.460,156.999 166.460 C 156.874 166.460,156.010 166.991,155.080 167.640 C 152.643 169.339,152.559 169.390,151.056 170.085 C 150.304 170.433,149.007 171.046,148.174 171.448 C 141.783 174.530,135.754 175.743,127.578 175.592 C 122.316 175.496,116.484 174.811,115.668 174.194 C 115.523 174.084,114.733 173.793,113.913 173.547 C 113.093 173.301,112.311 173.018,112.174 172.919 C 112.037 172.820,111.594 172.660,111.189 172.563 C 107.141 171.592,98.861 166.351,94.410 161.943 C 90.346 157.917,85.471 151.428,85.464 150.036 C 85.463 149.845,85.239 149.354,84.965 148.944 C 83.913 147.368,82.020 143.038,81.825 141.758 C 81.740 141.201,81.524 140.456,81.346 140.102 C 81.168 139.748,80.902 138.686,80.756 137.742 C 80.609 136.797,80.374 135.298,80.234 134.410 C 79.503 129.779,79.513 125.391,80.267 119.649 C 80.702 116.338,81.831 111.826,82.681 110.009 C 86.453 101.936,87.398 100.360,91.146 95.901 C 92.510 94.277,94.428 92.338,96.646 90.338 C 99.148 88.082,99.255 87.996,99.959 87.675 C 100.323 87.509,100.621 87.298,100.621 87.205 C 100.621 87.112,100.929 86.897,101.304 86.727 C 101.680 86.557,102.739 85.924,103.657 85.321 C 104.575 84.717,105.382 84.224,105.452 84.224 C 105.619 84.224,108.592 82.801,109.068 82.493 C 110.297 81.699,115.615 80.153,120.248 79.243 C 124.234 78.461,132.782 78.484,136.646 79.287 " stroke="none" fill="#6b6b6b" fill-rule="evenodd"></path><path id="path4" d="M122.609 35.043 C 120.559 35.145,117.652 35.415,116.149 35.644 C 114.646 35.873,112.701 36.166,111.826 36.295 C 106.924 37.020,93.890 40.996,90.726 42.732 C 90.498 42.858,88.913 43.654,87.205 44.501 C 85.497 45.348,83.764 46.212,83.354 46.421 C 81.271 47.484,74.199 52.223,71.475 54.383 C 70.681 55.013,69.607 55.863,69.089 56.273 C 64.642 59.791,55.853 69.253,53.230 73.347 C 52.854 73.934,52.016 75.154,51.366 76.058 C 50.717 76.963,50.186 77.780,50.186 77.874 C 50.186 77.968,49.923 78.401,49.601 78.836 C 47.117 82.193,42.385 92.315,40.752 97.764 C 40.506 98.584,40.187 99.534,40.043 99.876 C 39.140 102.020,37.306 110.509,36.475 116.398 C 35.969 119.987,36.061 134.999,36.612 138.742 C 38.507 151.608,42.432 163.477,47.669 172.174 C 47.957 172.652,48.296 173.267,48.423 173.540 C 49.602 176.088,55.575 184.400,58.861 188.065 C 64.278 194.110,68.665 198.017,75.528 202.909 C 79.967 206.074,87.516 210.279,91.801 211.973 C 92.484 212.243,93.154 212.551,93.291 212.658 C 93.604 212.901,101.968 215.736,103.975 216.278 C 127.259 222.571,154.457 219.154,173.913 207.491 C 174.391 207.204,175.174 206.754,175.652 206.491 C 176.716 205.906,183.678 201.251,183.851 201.009 C 183.919 200.913,184.590 200.382,185.342 199.828 C 187.200 198.458,191.094 194.953,194.485 191.598 C 198.238 187.884,197.811 187.844,202.452 192.345 C 214.029 203.574,226.876 211.328,240.621 215.384 C 242.124 215.828,243.883 216.350,244.529 216.546 C 263.181 222.187,289.544 219.528,308.538 210.090 C 312.562 208.090,315.067 206.641,319.501 203.748 C 336.964 192.353,353.399 169.265,357.260 150.702 C 357.376 150.145,357.757 148.460,358.107 146.957 C 360.946 134.762,360.955 119.952,358.130 107.556 C 357.775 105.997,357.400 104.273,357.296 103.727 C 357.108 102.730,356.393 100.449,354.962 96.273 C 354.540 95.043,353.489 92.438,352.625 90.484 C 351.762 88.529,351.056 86.892,351.056 86.846 C 351.056 86.658,347.314 79.983,346.174 78.137 C 339.183 66.815,328.955 56.577,317.019 48.950 C 309.548 44.177,297.784 39.153,290.559 37.649 C 289.602 37.449,288.484 37.176,288.075 37.040 C 286.972 36.676,280.069 35.602,276.646 35.262 C 270.849 34.687,255.185 35.114,253.944 35.881 C 253.851 35.939,252.828 36.112,251.670 36.267 C 250.512 36.421,248.727 36.759,247.702 37.018 C 246.677 37.277,245.076 37.670,244.145 37.891 C 239.805 38.920,232.246 41.749,227.578 44.092 C 216.777 49.512,209.473 54.782,201.487 62.919 C 198.016 66.456,198.403 66.494,193.946 62.174 C 190.679 59.007,189.800 58.210,186.491 55.408 C 181.195 50.924,170.323 44.413,163.929 41.895 C 157.183 39.239,149.472 36.986,144.697 36.275 C 143.753 36.135,141.807 35.848,140.373 35.639 C 137.798 35.262,129.991 34.768,127.578 34.828 C 126.894 34.845,124.658 34.942,122.609 35.043 M135.692 35.887 C 137.242 36.085,139.719 36.370,141.197 36.521 C 143.979 36.806,150.237 38.162,154.783 39.466 C 157.076 40.124,158.387 40.573,162.609 42.151 C 164.495 42.855,173.401 47.151,173.665 47.483 C 173.733 47.569,174.180 47.853,174.658 48.113 C 175.137 48.373,176.199 49.022,177.019 49.554 C 177.839 50.086,178.955 50.809,179.500 51.161 C 180.045 51.513,181.374 52.472,182.453 53.292 C 183.532 54.112,184.707 55.002,185.065 55.269 C 187.046 56.753,190.484 59.827,193.244 62.582 C 198.310 67.639,197.946 67.586,201.646 63.789 C 204.616 60.741,207.181 58.389,209.689 56.416 C 210.578 55.717,211.810 54.713,212.429 54.184 C 213.729 53.072,216.427 51.195,217.807 50.443 C 218.330 50.158,219.540 49.429,220.497 48.824 C 221.453 48.218,222.739 47.438,223.354 47.089 C 223.969 46.741,224.640 46.348,224.845 46.217 C 225.162 46.014,227.541 44.883,231.677 42.966 C 234.807 41.516,242.104 39.132,246.460 38.136 C 248.031 37.777,250.010 37.323,250.857 37.127 C 251.704 36.931,253.548 36.653,254.956 36.508 C 256.364 36.364,258.783 36.084,260.332 35.887 C 263.979 35.422,271.637 35.421,275.155 35.884 C 276.658 36.082,279.062 36.357,280.497 36.496 C 283.230 36.759,284.380 36.990,290.683 38.540 C 296.241 39.906,298.793 40.701,301.010 41.755 C 301.566 42.020,302.160 42.236,302.331 42.236 C 302.502 42.236,303.669 42.728,304.923 43.329 C 308.832 45.202,310.529 45.963,310.797 45.963 C 310.939 45.963,311.056 46.049,311.056 46.154 C 311.056 46.259,311.701 46.700,312.490 47.133 C 316.227 49.187,321.184 52.485,324.472 55.103 C 325.224 55.701,326.062 56.367,326.335 56.581 C 328.988 58.668,333.173 62.769,336.817 66.853 C 340.138 70.575,340.373 70.853,340.373 71.056 C 340.373 71.151,341.221 72.334,342.258 73.685 C 344.075 76.053,347.152 80.983,349.067 84.596 C 349.574 85.553,350.229 86.727,350.521 87.205 C 350.814 87.683,351.054 88.214,351.055 88.385 C 351.055 88.555,351.727 90.269,352.547 92.194 C 353.366 94.119,354.037 95.830,354.037 95.997 C 354.037 96.164,354.299 96.853,354.618 97.529 C 356.604 101.733,358.647 112.303,359.370 122.112 C 360.038 131.171,358.513 144.715,355.881 153.097 C 355.550 154.151,355.279 155.157,355.278 155.333 C 355.278 155.509,354.998 156.202,354.657 156.874 C 354.316 157.547,354.037 158.335,354.037 158.626 C 354.037 158.917,353.938 159.261,353.817 159.391 C 353.696 159.521,353.196 160.634,352.707 161.863 C 351.382 165.192,350.414 167.433,350.215 167.632 C 350.118 167.729,349.819 168.260,349.552 168.811 C 349.285 169.363,348.759 170.344,348.384 170.991 C 348.009 171.639,347.276 172.913,346.755 173.822 C 344.203 178.279,339.445 184.780,336.328 188.071 C 335.341 189.112,333.929 190.629,333.189 191.441 C 332.448 192.254,330.989 193.646,329.945 194.534 C 328.901 195.422,327.610 196.624,327.077 197.205 C 326.544 197.786,326.013 198.261,325.899 198.261 C 325.784 198.261,324.438 199.190,322.907 200.326 C 321.377 201.463,319.621 202.734,319.006 203.151 C 316.705 204.715,314.337 206.211,314.165 206.211 C 314.068 206.211,312.877 206.854,311.518 207.640 C 308.447 209.417,308.260 209.516,306.584 210.266 C 303.927 211.455,302.171 212.174,301.925 212.174 C 301.789 212.174,301.076 212.438,300.341 212.761 C 298.683 213.490,292.603 215.541,291.429 215.768 C 290.950 215.861,289.441 216.196,288.075 216.513 C 286.708 216.831,284.640 217.222,283.478 217.383 C 282.317 217.543,280.807 217.778,280.124 217.903 C 273.667 219.088,260.722 218.898,253.479 217.511 C 252.419 217.309,251.241 217.143,250.860 217.143 C 249.372 217.143,240.933 214.883,237.391 213.536 C 229.777 210.641,228.109 209.906,224.733 207.959 C 223.633 207.325,222.532 206.729,222.286 206.636 C 221.496 206.335,218.075 204.200,215.901 202.649 C 210.291 198.649,207.386 196.171,202.086 190.870 C 198.030 186.812,198.222 186.818,194.449 190.615 C 192.924 192.148,191.315 193.701,190.872 194.064 C 190.429 194.428,189.255 195.481,188.263 196.406 C 187.271 197.330,185.342 198.912,183.975 199.920 C 182.609 200.929,181.315 201.900,181.100 202.079 C 180.885 202.258,180.354 202.614,179.920 202.871 C 179.486 203.127,179.130 203.425,179.130 203.532 C 179.130 203.639,179.012 203.727,178.868 203.727 C 178.724 203.727,177.746 204.267,176.694 204.928 C 173.502 206.932,168.693 209.546,166.460 210.489 C 160.337 213.076,153.630 215.446,151.180 215.888 C 150.497 216.012,148.988 216.339,147.826 216.615 C 144.372 217.435,139.576 218.107,134.161 218.530 C 127.134 219.080,122.140 218.779,111.301 217.155 C 107.826 216.635,100.744 214.762,98.509 213.773 C 98.099 213.591,96.925 213.150,95.901 212.791 C 94.876 212.433,93.534 211.931,92.919 211.675 C 90.388 210.621,87.562 209.362,87.329 209.186 C 87.040 208.966,85.751 208.238,83.478 207.011 C 80.950 205.645,77.624 203.606,76.592 202.789 C 76.075 202.379,74.366 201.125,72.795 200.002 C 71.224 198.879,69.706 197.720,69.422 197.427 C 69.138 197.134,68.026 196.112,66.951 195.155 C 60.033 189.002,53.828 181.449,49.806 174.286 C 49.422 173.602,48.970 172.876,48.801 172.671 C 48.189 171.929,45.905 167.514,44.689 164.720 C 42.375 159.404,42.236 159.069,42.236 158.795 C 42.236 158.645,42.021 158.044,41.759 157.460 C 41.114 156.024,39.749 151.558,39.750 150.892 C 39.751 150.596,39.528 149.646,39.256 148.780 C 38.795 147.317,38.555 145.980,37.260 137.640 C 36.659 133.768,36.453 127.353,36.758 121.988 C 36.964 118.359,37.219 116.366,38.286 110.062 C 38.698 107.632,39.733 103.216,40.382 101.118 C 40.700 100.093,41.034 98.880,41.126 98.422 C 41.218 97.964,41.568 96.958,41.905 96.186 C 42.526 94.764,42.913 93.844,44.117 90.932 C 44.484 90.043,44.950 88.925,45.153 88.447 C 45.839 86.830,47.175 84.281,48.062 82.894 C 48.547 82.135,48.944 81.455,48.944 81.383 C 48.944 81.311,49.318 80.663,49.776 79.943 C 50.234 79.223,50.909 78.090,51.277 77.427 C 51.645 76.763,52.584 75.380,53.364 74.353 C 54.144 73.326,55.135 72.000,55.567 71.405 C 55.998 70.811,56.593 70.014,56.889 69.634 C 59.769 65.941,67.525 58.298,71.196 55.535 C 71.927 54.984,73.341 53.912,74.337 53.152 C 75.334 52.393,77.658 50.833,79.503 49.687 C 81.348 48.541,82.913 47.538,82.981 47.460 C 83.050 47.381,84.783 46.496,86.832 45.493 C 88.882 44.490,91.006 43.444,91.553 43.169 C 92.099 42.894,93.106 42.466,93.789 42.216 C 94.472 41.967,95.981 41.415,97.143 40.988 C 102.600 38.984,111.240 36.942,116.651 36.377 C 118.698 36.164,120.988 35.899,121.739 35.789 C 124.110 35.441,132.670 35.502,135.692 35.887 M123.354 76.888 C 118.917 77.335,115.374 78.102,112.325 79.277 C 111.292 79.674,110.367 80.000,110.271 80.000 C 109.687 80.000,102.362 83.772,100.497 85.033 C 95.782 88.221,90.311 93.344,88.161 96.587 C 87.913 96.961,87.456 97.612,87.147 98.033 C 86.837 98.454,86.193 99.407,85.714 100.150 C 85.236 100.894,84.702 101.724,84.528 101.994 C 84.354 102.264,83.814 103.323,83.328 104.348 C 82.841 105.373,82.328 106.426,82.187 106.688 C 78.389 113.753,76.737 127.510,78.605 136.522 C 79.303 139.890,80.619 144.240,81.013 144.484 C 81.139 144.562,81.242 144.840,81.242 145.102 C 81.242 145.977,84.560 152.815,85.577 154.037 C 85.748 154.242,85.962 154.578,86.054 154.783 C 86.145 154.988,86.525 155.557,86.899 156.048 C 87.272 156.540,88.069 157.602,88.668 158.409 C 93.253 164.575,102.615 171.514,109.938 174.174 C 117.875 177.057,120.271 177.495,128.199 177.506 C 137.400 177.520,142.697 176.284,151.056 172.173 C 160.963 167.300,170.640 157.140,174.509 147.548 C 175.026 146.266,175.554 145.019,175.681 144.777 C 175.808 144.535,176.134 143.742,176.407 143.014 C 177.177 140.954,175.726 141.084,198.000 141.082 C 220.938 141.081,219.060 140.846,220.158 143.851 C 221.791 148.320,224.994 154.483,226.708 156.455 C 226.918 156.697,227.942 157.957,228.982 159.255 C 230.022 160.553,231.278 161.995,231.772 162.460 C 235.425 165.895,236.563 166.881,237.764 167.652 C 238.516 168.134,239.186 168.606,239.255 168.700 C 239.323 168.795,240.329 169.467,241.491 170.194 C 253.427 177.664,268.539 179.633,282.452 175.531 C 283.596 175.194,284.658 174.819,284.812 174.697 C 284.967 174.575,285.702 174.277,286.447 174.034 C 293.367 171.775,302.155 165.233,307.351 158.473 C 310.245 154.707,310.968 153.640,312.329 151.123 C 313.543 148.879,313.865 148.146,315.149 144.720 C 315.456 143.901,315.884 142.783,316.099 142.236 C 319.012 134.845,319.161 122.686,316.453 113.416 C 312.640 100.367,303.043 88.326,292.174 82.954 C 291.012 82.380,289.207 81.488,288.161 80.971 C 278.020 75.959,263.160 75.259,251.823 79.261 C 249.874 79.949,248.698 80.448,244.969 82.173 C 242.100 83.499,239.776 85.030,236.326 87.866 C 229.791 93.236,225.155 99.084,222.233 105.641 C 221.607 107.048,220.940 108.534,220.752 108.944 C 220.564 109.354,220.276 110.137,220.113 110.683 C 219.950 111.230,219.529 111.984,219.178 112.360 L 218.541 113.043 198.133 113.043 L 177.726 113.043 177.204 112.484 C 176.917 112.177,176.384 111.199,176.019 110.311 C 170.569 97.034,162.079 87.344,151.615 82.457 C 150.146 81.771,148.553 81.002,148.075 80.749 C 147.596 80.495,146.702 80.105,146.087 79.882 C 145.472 79.659,144.354 79.253,143.602 78.980 C 138.380 77.083,130.006 76.218,123.354 76.888 M131.793 77.524 C 151.606 79.133,168.640 92.068,175.298 110.559 C 176.662 114.349,174.692 114.058,198.429 113.980 C 221.863 113.902,219.435 114.235,220.807 110.910 C 221.252 109.834,221.615 108.871,221.615 108.771 C 221.615 108.400,224.168 103.256,224.990 101.972 C 225.456 101.242,225.839 100.571,225.839 100.480 C 225.839 100.328,227.515 97.923,227.818 97.640 C 227.892 97.571,228.584 96.733,229.357 95.776 C 245.350 75.985,274.072 71.605,295.280 85.722 C 327.145 106.933,324.269 154.267,290.062 171.602 C 287.165 173.070,282.757 174.802,280.994 175.165 C 280.516 175.264,279.062 175.575,277.764 175.856 C 263.246 179.002,246.010 174.504,235.404 164.802 C 235.130 164.552,234.568 164.068,234.155 163.726 C 229.115 159.566,222.567 149.430,220.597 142.738 C 219.798 140.025,220.648 140.113,195.979 140.190 L 177.424 140.248 176.702 140.940 C 176.239 141.383,175.733 142.361,175.288 143.673 C 163.255 179.125,115.906 188.306,91.087 160.000 C 86.882 155.204,85.217 152.556,82.102 145.714 C 79.366 139.703,77.828 127.343,78.965 120.497 C 80.861 109.071,85.085 100.444,92.548 92.749 C 97.166 87.988,106.047 81.739,108.196 81.739 C 108.258 81.739,108.899 81.473,109.620 81.148 C 113.621 79.345,119.120 77.998,124.389 77.531 C 127.636 77.243,128.320 77.242,131.793 77.524 " stroke="none" fill="#949494" fill-rule="evenodd"></path></g></svg>